<?xml version="1.0" encoding="UTF-8" standalone="no"?>
<!-- Created with Inkscape (http://www.inkscape.org/) -->

<svg
   xmlns:dc="http://purl.org/dc/elements/1.1/"
   xmlns:cc="http://creativecommons.org/ns#"
   xmlns:rdf="http://www.w3.org/1999/02/22-rdf-syntax-ns#"
   xmlns:svg="http://www.w3.org/2000/svg"
   xmlns="http://www.w3.org/2000/svg"
   xmlns:sodipodi="http://sodipodi.sourceforge.net/DTD/sodipodi-0.dtd"
   xmlns:inkscape="http://www.inkscape.org/namespaces/inkscape"
   width="744.09448819"
   height="1052.3622047"
   id="svg4048"
   version="1.1"
   inkscape:version="0.47 r22583"
   sodipodi:docname="New document 9">
  <defs
     id="defs4050">
    <inkscape:perspective
       sodipodi:type="inkscape:persp3d"
       inkscape:vp_x="0 : 526.18109 : 1"
       inkscape:vp_y="0 : 1000 : 0"
       inkscape:vp_z="744.09448 : 526.18109 : 1"
       inkscape:persp3d-origin="372.04724 : 350.78739 : 1"
       id="perspective4056" />
  </defs>
  <sodipodi:namedview
     id="base"
     pagecolor="#ffffff"
     bordercolor="#666666"
     borderopacity="1.0"
     inkscape:pageopacity="0.0"
     inkscape:pageshadow="2"
     inkscape:zoom="0.72103365"
     inkscape:cx="226.17936"
     inkscape:cy="520.55343"
     inkscape:document-units="px"
     inkscape:current-layer="layer1"
     showgrid="false"
     inkscape:window-width="1600"
     inkscape:window-height="1125"
     inkscape:window-x="0"
     inkscape:window-y="24"
     inkscape:window-maximized="1" />
  <metadata
     id="metadata4053">
    <rdf:RDF>
      <cc:Work
         rdf:about="">
        <dc:format>image/svg+xml</dc:format>
        <dc:type
           rdf:resource="http://purl.org/dc/dcmitype/StillImage" />
        <dc:title></dc:title>
      </cc:Work>
    </rdf:RDF>
  </metadata>
  <g
     inkscape:label="Layer 1"
     inkscape:groupmode="layer"
     id="layer1">
    <path
       style="fill:#ffe106;fill-opacity:1;stroke:#000000;stroke-width:3.89400005;stroke-miterlimit:4;stroke-opacity:1;stroke-dasharray:none"
       d="m 416.93779,188.20843 c -10.83258,1.00012 -86.09744,138.15022 -97.46875,140.53125 -11.37131,2.38103 -53.94877,-126.49855 -64.8125,-123.65625 -10.86373,2.8423 11.80548,143.9532 1.375,148.15625 -10.43048,4.20305 -108.63119,-82.37532 -118.28125,-76.875 -9.65006,5.50032 97.94292,121.22027 89.40625,127.03125 -8.53667,5.81098 -152.739118,-60.19971 -160.124998,-52.84375 -7.38588,7.35596 98.531288,78.86379 92.374998,86.78125 -6.15629,7.91746 -152.2222023,-37.39041 -156.0624983,-29.125 -3.84029598,8.26541 132.1144683,68.56469 129.7812483,77.09375 -2.33322,8.52906 -158.306231,15.09067 -160.514907,23.37357 -2.208677,8.2829 151.125187,12.26767 151.577407,20.12643 0.45222,7.85876 -185.768211,57.4187 -183.874998,65.09375 1.893213,7.67505 189.656788,-23.45304 192.499998,-15.75 2.84321,7.70304 -150.559169,105.82142 -144.124998,112 6.4341707,6.17858 193.000128,-93.3737 200.093748,-88.0625 7.09362,5.3112 -88.944448,164.16539 -79.6875,167.875 9.25695,3.70961 99.31703,-129.39565 107.90625,-125.21875 8.58922,4.1769 -33.87826,154.58445 -23.47477,155.62041 10.40349,1.03596 119.1161,-159.34397 130.09977,-159.24541 10.98367,0.0986 -15.91826,167.94144 -5.03125,167.4375 10.88701,-0.50394 55.35625,-165.3211 66.84375,-167.3125 11.4875,-1.9914 54.30199,127.45128 64.78125,123.65625 10.47926,-3.79503 -3.92586,-128.18229 6.28125,-132.96875 10.20711,-4.78646 77.10678,131.3854 86.09375,125.3125 8.98697,-6.0729 -35.85711,-138.85801 -28.40625,-145.5 7.45086,-6.64199 147.0935,41.70509 154.3125,34.46875 7.219,-7.23634 -97.36278,-77.9094 -92.15625,-85.65625 5.20653,-7.74685 154.16128,32.86145 159.8125,24.71875 5.65122,-8.1427 -133.5406,-68.69523 -129.75,-77.09375 3.7906,-8.39852 165.45568,-5.32362 167.65625,-13.9375 2.20057,-8.61388 -158.81012,-22.31148 -159,-30.71875 -0.18988,-8.40727 121.99858,-40.54733 119.78125,-48.4375 -2.21733,-7.89017 -131.09231,-9.05733 -136,-16.0625 -4.90769,-7.00517 155.39836,-81.58654 149.3125,-87.375 -6.08586,-5.78846 -206.11102,42.22741 -213.28125,37.125 -7.17023,-5.10241 102.64748,-126.02256 94.21875,-130.3125 -8.42873,-4.28994 -134.22353,111.16585 -143.1875,107.90625 -8.96397,-3.2596 78.92443,-124.25924 68.34375,-125.53125 -10.58068,-1.27201 -143.18161,109.91442 -154.25,108.90625 -11.06839,-1.00817 27.77008,-122.53137 16.9375,-121.53125 z m -14.84375,154.3125 c 35.55846,-0.0125 67.12248,5.5443 84.71875,12.21875 24.69117,4.92626 141.59179,84.49007 37.4375,190.03125 -96.16765,97.44819 -242.37094,83.58291 -291.23968,47.15324 -39.91818,-29.75739 -71.60001,-122.8496 33.27093,-212.21574 35.75031,-30.46475 90.09447,-37.1714 135.8125,-37.1875 z"
       id="path4062"
       sodipodi:nodetypes="cssssssssssssssssssssssssssssssssssssssscccsssc" />
  </g>
</svg>
